<?xml version="1.0" encoding="UTF-8"?>
<svg width="808" height="633.3333333333333" xmlns="http://www.w3.org/2000/svg" xmlns:xlink="http://www.w3.org/1999/xlink">
 <title>purple and teal flame soccer ball</title>
 <defs>
  <linearGradient id="linearGradient649">
   <stop stop-color="#ffffff" offset="0" id="stop650"/>
   <stop stop-color="#000000" stop-opacity="0.4784" offset="1" id="stop651"/>
  </linearGradient>
  <radialGradient xlink:href="#linearGradient649" r="1.167724" id="radialGradient653" fy="-0.209212" fx="0.763822" cy="-0.209212" cx="0.763822"/>
  <radialGradient xlink:href="#linearGradient649" r="1.102597" id="radialGradient654" gradientTransform="translate(-2.99971e-08, -1.69195e-06)" fy="-0.050019" fx="0.414226" cy="-0.050019" cx="0.414226"/>
 </defs>
 <g>
  <title>Layer 1</title>
  <path fill="#3f007f" fill-rule="evenodd" stroke="#000000" stroke-width="1.9214" id="path681" d="m163.107925,184.705505c46.510269,-15.44516 75.766037,-14.863617 118.387802,-12.888947c30.822144,5.054138 72.81131,9.090729 121.782379,41.329865c30.114502,17.276443 65.928406,50.891541 86.481293,-19.952682c16.59021,-78.735863 74.667969,-84.753838 88.964478,-89.129471c7.025208,-2.150162 17.523865,-2.701347 27.203369,-2.687363c-11.577393,9.767616 -69.67041,13.863159 -80.325256,109.13562c1.715759,68.700027 -26.023651,105.335464 -89.11496,114.570145c-33.397308,5.326477 -42.563385,43.861237 -59.420563,77.889465c-12.292572,24.810944 -28.965149,60.707123 -67.531281,80.94339c-89.652954,45.61499 -188.240044,17.227905 -231.002769,-67.512878c-42.762688,-84.740753 -7.2649,-187.377533 79.286568,-229.245605c1.844711,-0.892319 3.414841,-1.620117 5.28894,-2.451538l0,0l0,0l0,0l0,0l0,0l0,0l0,0l0,0l0,0l0,0l0,0l0,0z"/>
  <path fill="#00ffff" stroke-width="0.835778" id="path688" d="m166.07074,193.139343c43.728577,-14.662262 62.929535,-12.946335 103.002197,-6.401016c34.090912,8.241928 74.316711,31.641922 117.984711,62.757263c62.876404,28.544357 84.923676,17.391861 102.820618,-8.084427c9.89093,-28.646118 4.949615,-76.664078 41.153534,-102.82164c7.36377,-5.076263 31.650757,-23.80957 39.992554,-26.831337c-16.954834,13.06633 -27.558533,26.164299 -40.429626,41.696907c-21.214813,25.601639 -16.420471,46.122726 -17.632507,80.506927c-2.130463,25.252823 -11.639221,46.058487 -38.880157,56.78624c-18.208527,6.253326 -23.980774,5.333466 -42.636261,8.337738c-31.399933,5.056427 -49.337463,71.913055 -63.590057,103.41745c-27.607391,48.246155 -29.860901,54.771423 -64.115356,74.679718c-84.29097,43.302917 -176.981766,16.354614 -217.186859,-64.09082c-40.205128,-80.445557 -6.830391,-177.879852 74.544586,-217.625793c1.73436,-0.84697 3.210556,-1.537872 4.972626,-2.327209l0,0l0,0l0,0l0,0l0,0l0,0l0,0l0,0l0,0l0,0l0,0l0,0l0,0l0,0l0,0l0,0l0,0z"/>
  <g font-size="12" transform="matrix(0.650569, 0, 0, 0.650569, -24.5094, -152.864)" id="g878">
   <g font-size="12" fill="#ffffff" id="g655">
    <path fill-rule="evenodd" stroke="#000000" fill="#ffffff" stroke-width="1pt" id="path656" d="m625.651489,757.476013a228.253906,229.693146 0 1 0 -456.507965,0a228.253906,229.693146 0 1 0 456.507965,0z"/>
    <path fill="#ffffff" fill-rule="evenodd" stroke-width="1pt" id="path657" d="m461.64035,626.364624c28.753967,-21.948059 46.965759,-31.502197 59.533844,-34.853699c25.306274,21.531982 51.450684,48.091187 68.378418,74.650391c-3.55481,23.630615 -8.785278,46.423584 -15.691528,68.378601c-26.578979,-6.367615 -53.157959,-12.735107 -79.736908,-19.1026c-10.827881,-29.690918 -21.655884,-59.381836 -32.483826,-89.072693c0,0 0,0 0,0l0,0l0,0z"/>
    <path fill="#ffffff" fill-rule="evenodd" id="path658" d="m323.437286,553.806702c25.306274,21.531982 18.773804,20.44165 35.701538,47.000854c-9.419861,11.900391 -57.381592,52.288696 -68.477295,72.567871c-24.903076,-3.016113 -44.77919,0.670776 -71.35817,-5.696594c-0.773499,-39.745422 22.751099,-67.760498 21.9776,-72.315369c0,0 0,0 0,0c20.10878,-15.919556 69.588211,-38.2052 82.156326,-41.556763l0,0z"/>
    <path fill="#ffffff" fill-rule="evenodd" id="path659" d="m423.143585,791.76123c8.837402,25.584412 12.070862,68.200073 14.754883,96.43512c-9.419922,11.900391 -65.247192,32.282349 -89.748901,39.155579c-31.075928,-18.260193 -54.605225,-49.476379 -71.129761,-72.601135c13.470154,-38.06958 32.064148,-64.636597 43.858643,-80.92157c34.088379,5.977295 68.176819,11.954712 102.265137,17.932007l0,0l0,0l0,0l0,0z"/>
    <path fill="#ffffff" fill-rule="evenodd" id="path660" d="m204.553116,836.931091c-3.674683,18.308533 1.626953,31.028809 5.188538,44.973206c-1.02002,0.592712 -1.837524,0.071106 -2.673218,1.916138c-34.259399,-46.466614 -41.394714,-114.256531 -38.218018,-136.507751c2.489624,0.232056 4.095215,0.464233 6.584717,0.917236c3.535522,33.587585 16.490295,68.862976 29.117981,88.701172l0,0z"/>
    <path fill="#ffffff" fill-rule="evenodd" id="path661" d="m611.2677,839.51825c-18.133667,49.581787 -64.86792,98.960083 -90.782593,109.836853c-3.607666,-0.40741 -6.84436,-0.013184 -9.944916,-0.529053c13.234711,-20.877502 10.300995,-39.001404 11.497528,-47.514648c27.023193,-9.566284 51.691162,-57.755798 65.996948,-73.209778c8.007202,1.648621 11.599731,3.670776 23.233032,11.416626l0,0z"/>
    <path fill="#ffffff" fill-rule="evenodd" id="path662" d="m380.363434,987.200623c-3.607666,-0.40741 -29.799194,-4.270996 -32.899658,-4.786926c-23.419128,-4.957153 -60.229858,-20.48938 -68.659424,-28.447205c20.729126,8.945801 41.509705,14.996216 50.446899,18.239441c5.337708,0.596802 8.083862,1.378662 19.1604,-2.837585c-0.185059,13.2052 46.842712,15.459961 54.054993,17.586243c-5.368469,1.110718 -7.665894,-0.078857 -22.10321,0.246033l0,0z"/>
    <path fill="#ffffff" fill-rule="evenodd" stroke="black" stroke-width="1.125" stroke-dashoffset="0" id="path663" d="m290.083771,673.229431c-1.734619,28.011963 10.765869,66.796509 30.576294,100.194702"/>
    <path fill="#ffffff" fill-rule="evenodd" stroke="#000000" stroke-width="1.125" stroke-dashoffset="0" id="path664" d="m461.627228,625.434631c-11.293274,-8.384644 -60.556885,-20.335022 -103.613403,-24.803955"/>
    <path fill="#ffffff" fill-rule="evenodd" stroke="#000000" stroke-width="1.125" stroke-dashoffset="0" id="path665" d="m422.804596,792.125427c32.088562,-31.546204 48.633179,-48.643494 71.384644,-77.376892"/>
    <path fill="#ffffff" fill-rule="evenodd" stroke="#000000" stroke-width="1.125" stroke-dashoffset="0" id="path666" d="m437.87796,888.0802c32.823853,14.409241 54.882935,17.164612 83.884491,13.798645"/>
    <path fill="#ffffff" fill-rule="evenodd" stroke="#000000" stroke-width="1.125" stroke-dashoffset="0" id="path667" d="m347.437897,926.0802c-3.572876,21.394409 -0.998901,30.634644 0.429443,42.709595"/>
    <path fill="#ffffff" fill-rule="evenodd" stroke="#000000" stroke-width="1.125" stroke-dashoffset="0" id="path668" d="m277.708527,854.7005c-55.516983,0.539429 -61.309402,-8.43158 -73.398087,-17.50116"/>
    <path fill="#ffffff" fill-rule="evenodd" stroke="#000000" stroke-width="1.125" stroke-dashoffset="0" id="path669" d="m219.533035,667.732422c-29.665833,30.411926 -36.479614,57.573608 -43.972595,81.966919"/>
    <path fill="#ffffff" fill-rule="evenodd" stroke="#000000" stroke-width="1.125" stroke-dashoffset="0" id="path670" d="m238.240433,592.025024c2.361023,1.544739 2.073486,1.30249 2.9104,2.573181"/>
    <path fill="#ffffff" fill-rule="evenodd" stroke="#000000" stroke-width="1.125" stroke-dashoffset="0" id="path671" d="m470.364899,540.548889c26.184814,17.571838 43.918549,40.914429 50.634491,50.906128"/>
    <path fill="#ffffff" fill-rule="evenodd" stroke="#000000" stroke-width="1.125" stroke-dashoffset="0" id="path672" d="m587.708374,827.2005c-0.092285,-20.334778 -3.809204,-83.43158 -15.897949,-92.501221"/>
    <path fill="#ffffff" fill-rule="evenodd" stroke="#000000" stroke-width="1.125" stroke-dashoffset="0" id="path673" d="m615.688232,685.337585c-6.755127,-10.520752 -13.272949,-15.37915 -26.135864,-18.614075"/>
    <path fill="#ffffff" fill-rule="evenodd" stroke="#000000" stroke-width="1.125" stroke-dashoffset="0" id="path674" d="m405.815094,529.083557c-49.628662,5.996826 -70.192505,16.717407 -81.850342,24.450867"/>
   </g>
   <path fill="none" fill-rule="evenodd" stroke="#000000" id="path641" d="m625.651489,757.475952a228.253906,229.693146 0 1 0 -456.507965,0a228.253906,229.693146 0 1 0 456.507965,0z"/>
   <path fill="#3f007f" fill-rule="evenodd" id="path607" d="m461.64035,626.364624c28.753967,-21.948059 46.965759,-31.502197 59.533844,-34.853699c25.306274,21.531982 51.450684,48.091187 68.378418,74.650391c-3.55481,23.630615 -8.785278,46.423584 -15.691528,68.378601c-26.578979,-6.367615 -53.157959,-12.735107 -79.736908,-19.1026c-10.827881,-29.690918 -21.655884,-59.381836 -32.483826,-89.072693c0,0 0,0 0,0l0,0l0,0z"/>
   <path fill="#3f007f" fill-rule="evenodd" id="path608" d="m323.437286,553.806702c25.306274,21.531982 18.773804,20.44165 35.701538,47.000854c-9.419861,11.900391 -57.381592,52.288696 -68.477295,72.567871c-24.903076,-3.016113 -44.77919,0.670776 -71.35817,-5.696594c-0.773499,-39.745422 22.751099,-67.760498 21.9776,-72.315369c0,0 0,0 0,0c20.10878,-15.919556 69.588211,-38.2052 82.156326,-41.556763l0,0z"/>
   <path fill="#3f007f" fill-rule="evenodd" id="path609" d="m423.143585,791.76123c8.837402,25.584412 12.070862,68.200073 14.754883,96.43512c-9.419922,11.900391 -65.247192,32.282349 -89.748901,39.155579c-31.075928,-18.260193 -54.605225,-49.476379 -71.129761,-72.601135c13.470154,-38.06958 32.064148,-64.636597 43.858643,-80.92157c34.088379,5.977295 68.176819,11.954712 102.265137,17.932007l0,0l0,0l0,0l0,0z"/>
   <path fill-rule="evenodd" id="path610" d="m204.553116,836.931091c-3.674683,18.308533 1.626953,31.028809 5.188538,44.973206c-1.02002,0.592712 -1.837524,0.071106 -2.673218,1.916138c-34.259399,-46.466614 -41.394714,-114.256531 -38.218018,-136.507751c2.489624,0.232056 4.095215,0.464233 6.584717,0.917236c3.535522,33.587585 16.490295,68.862976 29.117981,88.701172l0,0z"/>
   <path fill-rule="evenodd" id="path611" d="m611.2677,839.51825c-18.133667,49.581787 -64.86792,98.960083 -90.782593,109.836853c-3.607666,-0.40741 -6.84436,-0.013184 -9.944916,-0.529053c13.234711,-20.877502 10.300995,-39.001404 11.497528,-47.514648c27.023193,-9.566284 51.691162,-57.755798 65.996948,-73.209778c8.007202,1.648621 11.599731,3.670776 23.233032,11.416626l0,0z"/>
   <path fill-rule="evenodd" id="path612" d="m380.363434,987.200623c-3.607666,-0.40741 -29.799194,-4.270996 -32.899658,-4.786926c-23.419128,-4.957153 -60.229858,-20.48938 -68.659424,-28.447205c20.729126,8.945801 41.509705,14.996216 50.446899,18.239441c5.337708,0.596802 8.083862,1.378662 19.1604,-2.837585c-0.185059,13.2052 46.842712,15.459961 54.054993,17.586243c-5.368469,1.110718 -7.665894,-0.078857 -22.10321,0.246033l0,0z"/>
   <path fill="none" fill-rule="evenodd" stroke="#000000" stroke-width="1.125" stroke-dashoffset="0" id="path613" d="m290.083771,673.229431c-1.734619,28.011963 10.765869,66.796509 30.576294,100.194702"/>
   <path fill="none" fill-rule="evenodd" stroke="#000000" stroke-width="1.125" stroke-dashoffset="0" id="path614" d="m461.627228,625.434631c-11.293274,-8.384644 -60.556885,-20.335022 -103.613403,-24.803955"/>
   <path fill="none" fill-rule="evenodd" stroke="#000000" stroke-width="1.125" stroke-dashoffset="0" id="path615" d="m422.804596,792.125427c32.088562,-31.546204 48.633179,-48.643494 71.384644,-77.376892"/>
   <path fill="none" fill-rule="evenodd" stroke="#000000" stroke-width="1.125" stroke-dashoffset="0" id="path616" d="m437.87796,888.0802c32.823853,14.409241 54.882935,17.164612 83.884491,13.798645"/>
   <path fill="none" fill-rule="evenodd" stroke="#000000" stroke-width="1.125" stroke-dashoffset="0" id="path617" d="m347.437897,926.0802c-3.572876,21.394409 -0.998901,30.634644 0.429443,42.709595"/>
   <path fill="none" fill-rule="evenodd" stroke="#000000" stroke-width="1.125" stroke-dashoffset="0" id="path618" d="m277.708527,854.7005c-55.516983,0.539429 -61.309402,-8.43158 -73.398087,-17.50116"/>
   <path fill="none" fill-rule="evenodd" stroke="#000000" stroke-width="1.125" stroke-dashoffset="0" id="path619" d="m219.533035,667.732422c-29.665833,30.411926 -36.479614,57.573608 -43.972595,81.966919"/>
   <path fill="none" fill-rule="evenodd" stroke="#000000" stroke-width="1.125" stroke-dashoffset="0" id="path620" d="m238.240433,592.025024c2.361023,1.544739 2.073486,1.30249 2.9104,2.573181"/>
   <path fill="none" fill-rule="evenodd" stroke="#000000" stroke-width="1.125" stroke-dashoffset="0" id="path621" d="m470.364899,540.548889c26.184814,17.571838 43.918549,40.914429 50.634491,50.906128"/>
   <path fill="none" fill-rule="evenodd" stroke="#000000" stroke-width="1.125" stroke-dashoffset="0" id="path622" d="m587.708374,827.2005c-0.092285,-20.334778 -3.809204,-83.43158 -15.897949,-92.501221"/>
   <path fill="none" fill-rule="evenodd" stroke="#000000" stroke-width="1.125" stroke-dashoffset="0" id="path623" d="m615.688232,685.337585c-6.755127,-10.520752 -13.272949,-15.37915 -26.135864,-18.614075"/>
   <path fill="none" fill-rule="evenodd" stroke="#000000" stroke-width="1.125" stroke-dashoffset="0" id="path624" d="m405.815094,529.083557c-49.628662,5.996826 -70.192505,16.717407 -81.850342,24.450867"/>
   <path fill="url(#radialGradient653)" fill-rule="evenodd" stroke-width="1.25" id="path646" d="m310.868073,834.954041c11.607788,-1.171204 15.049683,-21.140137 17.58667,-27.869629c7.406616,-19.645996 13.409668,-24.15741 28.381226,-20.177673c14.324585,-0.534729 42.970215,4.664673 64.599487,8.559692c1.339966,9.019714 -1.404907,41.688171 1.011902,50.539185c2.009888,7.360901 9.061829,-1.469116 8.784912,21.642395c-2.350525,-6.112976 -6.225403,-55.228577 -10.231384,-72.298462c-10.975708,-5.825928 -22.046753,-4.545898 -40.773193,-9.190918c-18.469116,-4.581238 -39.512817,-6.887695 -58.081665,-10.929688c-5.685974,4.175964 -8.106689,13.5755 -13.478882,17.583557l-10.327393,23.253845c0,0 2.67511,19.881897 12.52832,18.887695l0,0l0,0l0,0l0,0l0,0z"/>
   <path fill="url(#radialGradient654)" fill-rule="evenodd" id="path717" d="m494.85379,713.909546c15.538086,5.076599 29.26059,6.673462 46.573578,10.988159c8.274536,1.9245 23.526611,6.405396 31.272705,8.230042c-4.402832,-3.894714 -13.570801,-7.521423 -16.218262,-8.039917c-3.328735,-0.652039 -21.981201,-5.674622 -25.471558,-7.330505c-10.14917,-1.864624 -16.900757,-2.947998 -23.733978,-3.841492c-0.470215,0.123474 -9.603271,0.021362 -12.422485,-0.006287l0,0z"/>
   <path fill="url(#radialGradient654)" fill-rule="evenodd" id="path718" d="m462.616974,625.710938c4.645996,18.161377 12.193115,32.56189 18.970459,52.036194c3.403625,9.229309 8.563477,26.771179 11.722046,35.424072c1.613892,-6.540588 -0.374146,-17.614807 -1.579224,-20.512512c-1.515015,-3.643555 -8.370483,-24.83667 -8.799438,-29.208984c-4.765869,-11.038696 -8.123962,-18.292786 -11.764893,-25.51947c-0.471069,-0.392334 -6.640259,-9.43103 -8.54895,-12.219299l0,0z"/>
   <path fill="url(#radialGradient654)" fill-rule="evenodd" id="path719" d="m297.477814,661.79541c9.130127,-13.346191 35.558716,-35.723511 47.699219,-47.924866c4.285034,-3.944031 8.20459,-5.549011 12.23291,-12.536011c-4.407104,2.621216 -22.450562,18.171204 -23.74939,20.608887c-1.633301,3.064819 -18.178467,16.289307 -20.611328,19.043396c-4.888306,9.403381 -7.112549,3.772217 -10.135498,10.274231c-0.070801,0.534668 -11.389771,17.715088 -12.38446,20.558594l6.948547,-10.024231l0,0z"/>
   <path fill="url(#radialGradient654)" fill-rule="evenodd" id="path720" d="m219.622208,666.786926c10.483643,2.280823 15.534851,3.379272 31.608948,3.500671c7.518204,0.537048 32.090714,1.42804 39.128738,2.520325c-4.023132,-2.782715 -12.364441,-4.677673 -14.769348,-4.764893c-3.023254,-0.109924 -19.975784,-1.916016 -23.153885,-2.876526c-9.217041,-0.227661 -15.347656,-0.242493 -21.550415,-0.080688c-0.42572,0.171814 -8.70752,1.338013 -11.264038,1.701111l0,0l0,0z"/>
   <path fill-rule="evenodd" fill="#3f007f" id="path874" d="m605.017578,849.119812c-16.108398,42.425781 -57.623047,84.67749 -80.643311,93.984497c-3.204834,-0.348572 -6.079956,-0.011169 -8.834106,-0.452698c11.75647,-17.86438 9.150269,-33.372498 10.213379,-40.656921c24.004883,-8.185791 45.917725,-49.420166 58.625854,-62.64386c7.112793,1.410706 10.304077,3.140991 20.638184,9.768982l0,0z"/>
   <path fill-rule="evenodd" fill="#3f007f" id="path876" d="m204.553116,836.931091c-3.674683,18.308533 1.626953,31.028809 5.188538,44.973206c-1.02002,0.592712 -1.837524,0.071106 -2.673218,1.916138c-34.259399,-46.466614 -41.394714,-114.256531 -38.218018,-136.507751c2.489624,0.232056 4.095215,0.464233 6.584717,0.917236c3.535522,33.587585 16.490295,68.862976 29.117981,88.701172l0,0z"/>
  </g>
  <path fill="#3f007f" fill-rule="evenodd" stroke="#000000" stroke-width="1.9214" id="path678" d="m619.784363,98.888283c0,-5.699326 10.614624,-4.830383 15.023071,-5.199112c16.945007,-1.41732 29.469116,5.634796 45.228577,5.952858c9.632324,0.19442 17.592712,-5.931168 25.514648,-10.363632c0.714355,-0.399757 -1.414368,0.825722 -2.139038,1.207062c-9.724731,5.118309 -16.462646,15.095192 -25.692993,21.258339c-15.599731,10.416061 -24.435425,2.47319 -38.157471,-6.016037c-6.249695,-3.866333 -11.752014,-5.345917 -19.776794,-6.839478z"/>
  <path fill="#00ffff" fill-rule="evenodd" stroke-width="0.835778" id="path682" d="m633.300049,99.780952c0,-2.690933 12.483643,-0.778816 14.965515,-0.952896c9.539734,-0.669159 16.090027,6.16452 24.962341,6.314705c5.422424,0.091782 9.904846,-2.800385 14.364441,-4.893105c0.402771,-0.188766 -0.796265,0.389824 -1.204163,0.569893c-5.47522,2.416557 -9.268188,7.127068 -14.464905,10.036987c-8.782471,4.917885 -13.756714,1.167702 -21.482056,-2.840424c-3.518555,-1.82547 -12.623291,-7.530006 -17.141174,-8.235161l0,0z"/>
  <text fill="#000000" stroke-width="0" x="180" y="311.666687" id="svg_1" font-size="24" font-family="Arial" text-anchor="middle" xml:space="preserve" transform="matrix(6.22303, 0, 0, 2.29591, -904.237, -397.787)"/>
  <text fill="#000000" stroke-width="0" x="184" y="267.666687" id="svg_2" font-size="24" font-family="Arial" text-anchor="middle" xml:space="preserve" transform="matrix(14.743, 0, 0, 6.45555, -2435.52, -1343.09)"/>
  <text fill="#000000" stroke-width="0" x="187" y="280.666687" id="svg_3" font-size="24" font-family="Arial" text-anchor="middle" xml:space="preserve" transform="matrix(6.14959, 0, 0, 1, -927.568, 0)"/>
 </g>
</svg>